<svg width="27" height="28" viewBox="0 0 27 28" fill="none" xmlns="http://www.w3.org/2000/svg">
<path d="M13.5 27.3333C20.8638 27.3333 26.8333 21.3638 26.8333 14C26.8333 6.6362 20.8638 0.666664 13.5 0.666664C6.1362 0.666664 0.166668 6.6362 0.166668 14C0.166668 21.3638 6.1362 27.3333 13.5 27.3333Z" stroke="#808080" stroke-width="1.5" stroke-linecap="round" stroke-linejoin="round"/>
<path d="M19.5 11.7147H8.92133C8.06 11.7147 7.628 11.7147 7.52133 11.4787C7.41467 11.244 7.71867 10.9667 8.328 10.4133L10.252 8.66666M7.5 16.2853H18.0787C18.94 16.2853 19.372 16.2853 19.4787 16.5213C19.5853 16.756 19.2813 17.0333 18.672 17.5867L16.748 19.3333" stroke="#808080" stroke-width="1.5" stroke-linecap="round" stroke-linejoin="round"/>
</svg>
