<svg width="33" height="32" viewBox="0 0 33 32" fill="none" xmlns="http://www.w3.org/2000/svg">
<path d="M25.8333 16C25.8333 16.3536 25.6929 16.6928 25.4428 16.9428C25.1928 17.1929 24.8536 17.3333 24.5 17.3333C24.1464 17.3333 23.8072 17.1929 23.5572 16.9428C23.3071 16.6928 23.1667 16.3536 23.1667 16C23.1667 15.6464 23.3071 15.3072 23.5572 15.0572C23.8072 14.8071 24.1464 14.6667 24.5 14.6667C24.8536 14.6667 25.1928 14.8071 25.4428 15.0572C25.6929 15.3072 25.8333 15.6464 25.8333 16Z" fill="#808080"/>
<path fill-rule="evenodd" clip-rule="evenodd" d="M13.7587 4.33334H17.908C20.3587 4.33334 22.3 4.33334 23.8187 4.53734C25.3813 4.748 26.6467 5.19067 27.6453 6.188C28.8773 7.42134 29.2707 9.072 29.4133 11.2147C30.1827 11.552 30.764 12.268 30.8267 13.1747C30.8333 13.256 30.8333 13.3427 30.8333 13.4227V18.5773C30.8333 18.6573 30.8333 18.744 30.828 18.824C30.764 19.7307 30.1827 20.448 29.4133 20.7867C29.2707 22.928 28.8773 24.5787 27.6453 25.812C26.6467 26.8093 25.3813 27.252 23.8187 27.4627C22.2987 27.6667 20.3587 27.6667 17.908 27.6667H13.7587C11.308 27.6667 9.36667 27.6667 7.848 27.4627C6.28534 27.252 5.02 26.8093 4.02134 25.812C3.02401 24.8133 2.58134 23.548 2.37067 21.9853C2.16667 20.4653 2.16667 18.5253 2.16667 16.0747V15.9253C2.16667 13.4747 2.16667 11.5333 2.37067 10.0147C2.58134 8.452 3.02401 7.18667 4.02134 6.188C5.02 5.19067 6.28534 4.748 7.848 4.53734C9.368 4.33334 11.308 4.33334 13.7587 4.33334ZM27.3907 21H24.8067C21.9467 21 19.4987 18.8293 19.4987 16C19.4987 13.1707 21.9467 11 24.8053 11H27.3893C27.2373 9.212 26.8947 8.26667 26.2293 7.60267C25.6653 7.03867 24.892 6.7 23.5507 6.52C22.1813 6.336 20.3747 6.33334 17.832 6.33334H13.832C11.2893 6.33334 9.484 6.336 8.112 6.52C6.77201 6.7 5.99867 7.03867 5.43467 7.60267C4.87067 8.16667 4.532 8.94 4.352 10.2813C4.168 11.652 4.16534 13.4573 4.16534 16C4.16534 18.5427 4.168 20.3493 4.352 21.72C4.532 23.06 4.87067 23.8333 5.43467 24.3973C5.99867 24.9613 6.772 25.3 8.11334 25.48C9.484 25.664 11.2893 25.6667 13.832 25.6667H17.832C20.3747 25.6667 22.1813 25.664 23.552 25.48C24.892 25.3 25.6653 24.9613 26.2293 24.3973C26.8947 23.7333 27.2387 22.7893 27.3907 21ZM7.5 10.6667C7.5 10.4015 7.60536 10.1471 7.7929 9.95956C7.98043 9.77203 8.23479 9.66667 8.5 9.66667H13.8333C14.0986 9.66667 14.3529 9.77203 14.5404 9.95956C14.728 10.1471 14.8333 10.4015 14.8333 10.6667C14.8333 10.9319 14.728 11.1862 14.5404 11.3738C14.3529 11.5613 14.0986 11.6667 13.8333 11.6667H8.5C8.23479 11.6667 7.98043 11.5613 7.7929 11.3738C7.60536 11.1862 7.5 10.9319 7.5 10.6667ZM28.3987 13H24.8067C22.908 13 21.4987 14.412 21.4987 16C21.4987 17.588 22.908 19 24.8053 19H28.4293C28.704 18.9827 28.8227 18.7973 28.832 18.6853V13.3147C28.8227 13.2027 28.704 13.0173 28.4293 13.0013L28.3987 13Z" fill="#808080"/>
</svg>
