<svg width="32" height="32" viewBox="0 0 32 32" fill="none" xmlns="http://www.w3.org/2000/svg">
<path d="M16 9.5906C12.4531 9.5906 9.59062 12.4531 9.59062 16C9.59062 19.5469 12.4531 22.4094 16 22.4094C19.5469 22.4094 22.4094 19.5469 22.4094 16C22.4094 12.4531 19.5469 9.5906 16 9.5906ZM16 20.1656C13.7062 20.1656 11.8344 18.2937 11.8344 16C11.8344 13.7062 13.7062 11.8344 16 11.8344C18.2937 11.8344 20.1656 13.7062 20.1656 16C20.1656 18.2937 18.2937 20.1656 16 20.1656ZM22.6719 7.83435C21.8437 7.83435 21.175 8.5031 21.175 9.33123C21.175 10.1594 21.8437 10.8281 22.6719 10.8281C23.5 10.8281 24.1687 10.1625 24.1687 9.33123C24.169 9.13459 24.1304 8.93983 24.0553 8.75811C23.9802 8.57639 23.8699 8.41127 23.7309 8.27223C23.5918 8.13318 23.4267 8.02293 23.245 7.94779C23.0633 7.87265 22.8685 7.83411 22.6719 7.83435ZM28.4937 16C28.4937 14.275 28.5094 12.5656 28.4125 10.8437C28.3156 8.84373 27.8594 7.06873 26.3969 5.60623C24.9312 4.1406 23.1594 3.68748 21.1594 3.5906C19.4344 3.49373 17.725 3.50935 16.0031 3.50935C14.2781 3.50935 12.5687 3.49373 10.8469 3.5906C8.84687 3.68748 7.07187 4.14373 5.60937 5.60623C4.14375 7.07185 3.69062 8.84373 3.59375 10.8437C3.49687 12.5687 3.5125 14.2781 3.5125 16C3.5125 17.7219 3.49687 19.4344 3.59375 21.1562C3.69062 23.1562 4.14687 24.9312 5.60937 26.3937C7.075 27.8594 8.84687 28.3125 10.8469 28.4094C12.5719 28.5062 14.2812 28.4906 16.0031 28.4906C17.7281 28.4906 19.4375 28.5062 21.1594 28.4094C23.1594 28.3125 24.9344 27.8562 26.3969 26.3937C27.8625 24.9281 28.3156 23.1562 28.4125 21.1562C28.5125 19.4344 28.4937 17.725 28.4937 16ZM25.7437 23.3687C25.5156 23.9375 25.2406 24.3625 24.8 24.8C24.3594 25.2406 23.9375 25.5156 23.3687 25.7437C21.725 26.3969 17.8219 26.25 16 26.25C14.1781 26.25 10.2719 26.3969 8.62812 25.7469C8.05937 25.5187 7.63437 25.2437 7.19687 24.8031C6.75625 24.3625 6.48125 23.9406 6.25312 23.3719C5.60312 21.725 5.75 17.8219 5.75 16C5.75 14.1781 5.60312 10.2719 6.25312 8.6281C6.48125 8.05935 6.75625 7.63435 7.19687 7.19685C7.6375 6.75935 8.05937 6.48123 8.62812 6.2531C10.2719 5.6031 14.1781 5.74998 16 5.74998C17.8219 5.74998 21.7281 5.6031 23.3719 6.2531C23.9406 6.48123 24.3656 6.75623 24.8031 7.19685C25.2437 7.63748 25.5187 8.05935 25.7469 8.6281C26.3969 10.2719 26.25 14.1781 26.25 16C26.25 17.8219 26.3969 21.725 25.7437 23.3687Z" fill="white"/>
</svg>
