<svg width="24" height="25" viewBox="0 0 24 25" fill="none" xmlns="http://www.w3.org/2000/svg">
<path d="M21.75 20.9395L16.086 15.2755C17.4471 13.6414 18.1258 11.5456 17.981 9.42389C17.8362 7.30219 16.8789 5.31801 15.3084 3.8841C13.7379 2.4502 11.6751 1.67697 9.54896 1.72528C7.42288 1.77359 5.39726 2.63971 3.8935 4.14347C2.38974 5.64723 1.52362 7.67284 1.47531 9.79893C1.427 11.925 2.20023 13.9879 3.63413 15.5584C5.06804 17.1289 7.05222 18.0861 9.17392 18.231C11.2956 18.3758 13.3915 17.6971 15.0255 16.336L20.6895 22L21.75 20.9395ZM3 9.99996C3 8.66494 3.39588 7.3599 4.13758 6.24987C4.87927 5.13983 5.93348 4.27467 7.16688 3.76378C8.40028 3.25289 9.75748 3.11921 11.0669 3.37966C12.3762 3.64011 13.579 4.28299 14.523 5.22699C15.467 6.171 16.1098 7.37373 16.3703 8.6831C16.6307 9.99248 16.4971 11.3497 15.9862 12.5831C15.4753 13.8165 14.6101 14.8707 13.5001 15.6124C12.3901 16.3541 11.085 16.75 9.74999 16.75C7.96039 16.748 6.24466 16.0362 4.97922 14.7707C3.71378 13.5053 3.00198 11.7896 3 9.99996Z" fill="white"/>
</svg>
