<svg width="24" height="25" viewBox="0 0 24 25" fill="none" xmlns="http://www.w3.org/2000/svg">
<path d="M23.8984 10.6848H13.5653H13.5652V0.351578C13.0529 0.284875 12.5305 0.25 12 0.25C11.4694 0.25 10.9471 0.284875 10.4348 0.351578V10.6847V10.6848H0.101578C0.034875 11.1971 0 11.7195 0 12.25C0 12.7806 0.034875 13.3029 0.101578 13.8152H10.4347H10.4348V24.1484C10.9471 24.2151 11.4694 24.25 12 24.25C12.5305 24.25 13.0529 24.2152 13.5652 24.1484V13.8153V13.8152H23.8984C23.9651 13.3029 24 12.7806 24 12.25C24 11.7195 23.9651 11.1971 23.8984 10.6848V10.6848Z" fill="#D80027"/>
<path d="M15.1304 15.3804L20.4852 20.7352C20.7315 20.489 20.9665 20.2317 21.1906 19.9648L16.6062 15.3804H15.1304V15.3804Z" fill="#D80027"/>
<path d="M8.86957 15.3806H8.86947L3.51471 20.7354C3.7609 20.9817 4.01829 21.2166 4.2851 21.4408L8.86957 16.8562V15.3806Z" fill="#D80027"/>
<path d="M8.86957 9.1196V9.11951L3.51476 3.76465C3.26848 4.01084 3.03354 4.26823 2.80939 4.53504L7.3939 9.11955H8.86957V9.1196Z" fill="#D80027"/>
<path d="M15.1304 9.11956L20.4853 3.76465C20.2391 3.51837 19.9817 3.28344 19.7149 3.05933L15.1304 7.64384V9.11956Z" fill="#D80027"/>
</svg>
