<svg width="24" height="24" viewBox="0 0 24 24" fill="none" xmlns="http://www.w3.org/2000/svg">
<path d="M2.48063 4.94409C1.53802 6.17048 0.827251 7.584 0.413391 9.11958H6.65611L2.48063 4.94409Z" fill="#0052B4"/>
<path d="M23.5866 9.11953C23.1728 7.584 22.4619 6.17048 21.5194 4.94409L17.344 9.11953H23.5866Z" fill="#0052B4"/>
<path d="M0.413391 15.3804C0.827297 16.9159 1.53806 18.3294 2.48063 19.5558L6.65597 15.3804H0.413391Z" fill="#0052B4"/>
<path d="M19.3059 2.73061C18.0795 1.788 16.666 1.07724 15.1304 0.66333V6.906L19.3059 2.73061Z" fill="#0052B4"/>
<path d="M4.69415 21.7693C5.92054 22.7119 7.33406 23.4227 8.86959 23.8366V17.594L4.69415 21.7693Z" fill="#0052B4"/>
<path d="M8.86954 0.66333C7.33401 1.07724 5.9205 1.788 4.69415 2.73056L8.86954 6.90595V0.66333Z" fill="#0052B4"/>
<path d="M15.1304 23.8366C16.666 23.4227 18.0795 22.7119 19.3058 21.7694L15.1304 17.594V23.8366Z" fill="#0052B4"/>
<path d="M17.344 15.3804L21.5194 19.5558C22.4619 18.3295 23.1728 16.9159 23.5866 15.3804H17.344Z" fill="#0052B4"/>
</svg>
