<svg width="208" height="153" viewBox="0 0 208 153" fill="none" xmlns="http://www.w3.org/2000/svg">
<path d="M0 10.6548V10.6548C0 15.9871 4.32267 20.3098 9.65496 20.3098H36.6484H39.2967C58.0744 20.3098 73.2967 35.5321 73.2967 54.3098V86.1548V142.648C73.2967 147.813 77.4836 152 82.6484 152V152V152C87.8131 152 92 147.813 92 142.648V76.4999V34.9999C92 16.2222 76.7777 0.999878 58 0.999878H46H9.65495C4.32267 0.999878 0 5.32255 0 10.6548V10.6548Z" fill="white"/>
<path d="M112.903 76.5V142.528C112.903 147.821 117.194 152.111 122.486 152.111V152.111V152.111C127.778 152.111 132.068 147.821 132.068 142.528V86.1691V54.1402C132.068 35.3625 147.29 20.1402 166.068 20.1402H169.621H197.592C202.884 20.1402 207.174 15.8502 207.174 10.5582V10.5582V10.5582C207.174 5.21806 202.845 0.889038 197.504 0.889038H160.038H146.903C128.126 0.889038 112.903 16.1114 112.903 34.889V76.5Z" fill="white"/>
</svg>
