<svg width="24" height="24" viewBox="0 0 24 24" fill="none" xmlns="http://www.w3.org/2000/svg">
<path d="M18.4267 23.6907L1.00399 1.29067C0.912158 1.17241 0.855356 1.03076 0.840042 0.881827C0.824728 0.73289 0.851516 0.582645 0.91736 0.448179C0.983204 0.313713 1.08546 0.200423 1.2125 0.121193C1.33954 0.0419634 1.48627 -2.63147e-05 1.63599 1.23725e-08H4.94265C5.06438 0.000181595 5.18446 0.0281395 5.29375 0.0817448C5.40304 0.13535 5.49866 0.213189 5.57332 0.309334L22.996 22.7093C23.0878 22.8276 23.1446 22.9692 23.1599 23.1182C23.1752 23.2671 23.1485 23.4174 23.0826 23.5518C23.0168 23.6863 22.9145 23.7996 22.7875 23.8788C22.6604 23.958 22.5137 24 22.364 24H19.0573C18.9356 23.9998 18.8155 23.9719 18.7062 23.9183C18.5969 23.8647 18.5013 23.7868 18.4267 23.6907Z" stroke="white" stroke-width="1.5"/>
<path d="M22.6666 0L1.33331 24" stroke="white" stroke-width="1.5" stroke-linecap="round"/>
</svg>
