<svg width="30" height="18" viewBox="0 0 30 18" fill="none" xmlns="http://www.w3.org/2000/svg">
<path d="M9.66667 17.3333C10.3739 17.3333 11.0522 17.0524 11.5523 16.5523C12.0524 16.0522 12.3333 15.3739 12.3333 14.6667C12.3333 13.9594 12.0524 13.2811 11.5523 12.781C11.0522 12.281 10.3739 12 9.66667 12C8.95942 12 8.28115 12.281 7.78105 12.781C7.28095 13.2811 7 13.9594 7 14.6667C7 15.3739 7.28095 16.0522 7.78105 16.5523C8.28115 17.0524 8.95942 17.3333 9.66667 17.3333ZM23 17.3333C23.7072 17.3333 24.3855 17.0524 24.8856 16.5523C25.3857 16.0522 25.6667 15.3739 25.6667 14.6667C25.6667 13.9594 25.3857 13.2811 24.8856 12.781C24.3855 12.281 23.7072 12 23 12C22.2928 12 21.6145 12.281 21.1144 12.781C20.6143 13.2811 20.3333 13.9594 20.3333 14.6667C20.3333 15.3739 20.6143 16.0522 21.1144 16.5523C21.6145 17.0524 22.2928 17.3333 23 17.3333Z" stroke="#1E1E1E" stroke-width="1.5" stroke-miterlimit="1.5" stroke-linecap="round" stroke-linejoin="round"/>
<path d="M12.4 14.6667H19V0.8C19 0.587827 18.9157 0.384344 18.7657 0.234315C18.6157 0.0842855 18.4122 0 18.2 0H0.333344M6.53334 14.6667H3.80001C3.69495 14.6667 3.59092 14.646 3.49386 14.6058C3.3968 14.5656 3.30861 14.5066 3.23432 14.4324C3.16004 14.3581 3.10111 14.2699 3.06091 14.1728C3.0207 14.0758 3.00001 13.9717 3.00001 13.8667V7.33333" stroke="#1E1E1E" stroke-width="1.5" stroke-linecap="round"/>
<path d="M1.66669 4H7.00002" stroke="#1E1E1E" stroke-width="1.5" stroke-linecap="round" stroke-linejoin="round"/>
<path d="M19 4H26.48C26.6346 4.00004 26.7859 4.04489 26.9156 4.12913C27.0453 4.21338 27.1478 4.33339 27.2107 4.47467L29.5973 9.84533C29.6428 9.94731 29.6664 10.0577 29.6667 10.1693V13.8667C29.6667 13.9717 29.646 14.0758 29.6058 14.1728C29.5656 14.2699 29.5066 14.3581 29.4324 14.4324C29.3581 14.5066 29.2699 14.5656 29.1728 14.6058C29.0758 14.646 28.9717 14.6667 28.8667 14.6667H26.3333M19 14.6667H20.3333" stroke="#1E1E1E" stroke-width="1.5" stroke-linecap="round"/>
</svg>
