<svg width="28" height="28" viewBox="0 0 28 28" fill="none" xmlns="http://www.w3.org/2000/svg">
<path d="M18.1148 18.6398H21.8948C23.3858 18.6153 25.6667 19.4005 25.6667 22.2331C25.6667 25.1731 22.8527 25.6666 21.8937 25.6666H9.27034C6.34434 25.6666 2.33334 25.0728 2.33334 20.0316V9.33565H25.6667V14.6055M20.419 16.3053L18.4333 17.962C18.3365 18.0467 18.2582 18.1506 18.2034 18.267C18.1485 18.3835 18.1184 18.51 18.1148 18.6386C18.1116 18.7759 18.1386 18.9123 18.1941 19.0379C18.2495 19.1635 18.332 19.2754 18.4357 19.3655L20.419 20.979M2.34034 9.32281L3.41484 6.63948C4.28751 4.55231 4.72384 3.50931 5.60818 2.92248C6.49251 2.33565 7.62651 2.33331 9.89334 2.33331H18.0833C20.3513 2.33331 21.4853 2.33331 22.3697 2.92131C23.254 3.50815 23.6892 4.55115 24.563 6.63715L25.6667 9.32748M13.9568 9.33448V2.33448M11.6235 14.0011H16.2902" stroke="black" stroke-width="1.5" stroke-linecap="round" stroke-linejoin="round"/>
</svg>
